# Blender v2.80 (sub 75) OBJ File: 'Bolt.blend'
# www.blender.org
o Cube_Cube.002
v -0.319239 0.641907 0.834330
v -0.357437 0.950120 1.029771
v -0.319239 0.641907 0.606832
v -0.357437 0.950120 0.725876
v -0.091741 0.641907 0.834330
v -0.053542 0.950120 1.029771
v -0.091741 0.641907 0.606832
v -0.053542 0.950120 0.725876
v -0.319239 0.562404 0.761199
v -0.319239 0.562404 0.988697
v -0.091741 0.562404 0.761199
v -0.091741 0.562404 0.988697
v -0.206835 0.323611 0.706404
v -0.206835 0.323611 0.709094
v -0.204145 0.323611 0.706404
v -0.204145 0.323611 0.709094
vn -0.9924 -0.1230 0.0000
vn 0.0000 0.3603 -0.9328
vn 0.9924 -0.1230 0.0000
vn 0.0000 -0.5355 0.8445
vn 0.0000 0.8890 0.4579
vn 0.0000 1.0000 0.0000
vn 0.0000 0.2237 -0.9747
vn 1.0000 0.0000 0.0000
vn -1.0000 -0.0000 0.0000
vn 0.0000 -0.8890 -0.4579
vn 0.0000 -1.0000 0.0000
vn 0.9048 -0.4259 0.0000
vn -0.9048 -0.4259 0.0000
vn 0.0000 -0.7604 0.6494
s off
f 4//1 1//1 2//1
f 8//2 3//2 4//2
f 8//3 5//3 7//3
f 2//4 5//4 6//4
f 1//5 12//5 5//5
f 8//6 2//6 6//6
f 11//7 13//7 9//7
f 5//8 11//8 7//8
f 1//9 9//9 10//9
f 7//10 9//10 3//10
f 13//11 16//11 14//11
f 11//12 16//12 15//12
f 9//13 14//13 10//13
f 10//14 16//14 12//14
f 4//1 3//1 1//1
f 8//2 7//2 3//2
f 8//3 6//3 5//3
f 2//4 1//4 5//4
f 1//5 10//5 12//5
f 8//6 4//6 2//6
f 11//7 15//7 13//7
f 5//8 12//8 11//8
f 1//9 3//9 9//9
f 7//10 11//10 9//10
f 13//11 15//11 16//11
f 11//12 12//12 16//12
f 9//13 13//13 14//13
f 10//14 14//14 16//14
