# Blender v2.80 (sub 75) OBJ File: 'Cube_Spikes.blend'
# www.blender.org
mtllib Cube_Spikes.mtl
o Cube_Spikes_Cube.060
v 0.376667 0.376667 0.717692
v 0.381557 0.381557 1.038901
v 0.376667 -0.376667 0.717692
v 0.381557 -0.381557 1.038901
v -0.376667 0.376667 0.717692
v -0.381556 0.381556 1.038901
v -0.376667 -0.376667 0.717692
v -0.381556 -0.381557 1.038901
v 0.000000 -0.000000 1.575619
v 0.376667 -0.376667 -0.717692
v 0.381557 -0.381556 -1.038901
v 0.376667 0.376667 -0.717692
v 0.381557 0.381557 -1.038901
v -0.376667 -0.376667 -0.717692
v -0.381556 -0.381556 -1.038901
v -0.376667 0.376667 -0.717692
v -0.381556 0.381557 -1.038901
v 0.000001 0.000001 -1.575619
v -0.717692 -0.376667 -0.376667
v -1.038901 -0.381556 -0.381557
v -0.717692 0.376667 -0.376667
v -1.038901 0.381557 -0.381557
v -0.717692 -0.376667 0.376667
v -1.038901 -0.381556 0.381556
v -0.717692 0.376667 0.376667
v -1.038901 0.381557 0.381557
v -1.575619 0.000001 -0.000000
v 0.376667 -0.717692 -0.376667
v 0.381556 -1.038901 -0.381557
v -0.376667 -0.717692 -0.376667
v -0.381557 -1.038901 -0.381557
v 0.376667 -0.717692 0.376667
v 0.381556 -1.038901 0.381556
v -0.376667 -0.717692 0.376667
v -0.381557 -1.038901 0.381556
v -0.000001 -1.575619 -0.000000
v 0.717692 0.376667 -0.376667
v 1.038901 0.381557 -0.381557
v 0.717692 -0.376667 -0.376667
v 1.038901 -0.381557 -0.381557
v 0.717692 0.376667 0.376667
v 1.038901 0.381556 0.381556
v 0.717692 -0.376667 0.376667
v 1.038901 -0.381557 0.381556
v 1.575619 -0.000000 -0.000000
v -0.376667 0.717692 -0.376667
v -0.381557 1.038901 -0.381557
v 0.376667 0.717692 -0.376667
v 0.381557 1.038901 -0.381557
v -0.376667 0.717692 0.376667
v -0.381557 1.038901 0.381557
v 0.376667 0.717692 0.376667
v 0.381557 1.038901 0.381557
v 0.000000 1.575619 -0.000000
v -0.707284 0.707284 -1.010406
v -0.707284 -0.707284 -1.010406
v 0.707284 -0.707284 -1.010406
v 0.707284 0.707284 -1.010406
v -0.707284 1.010405 0.707284
v -0.707284 1.010405 -0.707284
v 0.707284 1.010406 -0.707284
v 0.707284 1.010406 0.707284
v 1.010406 0.707284 -0.707284
v 1.010406 -0.707284 -0.707284
v 1.010406 -0.707284 0.707284
v 1.010406 0.707284 0.707284
v -1.010406 -0.707284 -0.707284
v -1.010406 -0.707284 0.707284
v -1.010406 0.707284 0.707284
v -1.010406 0.707284 -0.707284
v -0.707284 -1.010406 -0.707284
v -0.707284 -1.010406 0.707284
v 0.707284 -1.010406 -0.707284
v 0.707284 -1.010406 0.707284
v -0.707284 -0.707284 1.010406
v -0.707284 0.707284 1.010406
v 0.707284 0.707284 1.010406
v 0.707284 -0.707284 1.010406
v 0.936710 0.677466 -0.677466
v 0.936710 -0.677467 -0.677466
v 0.936710 -0.677467 0.677466
v 0.936710 0.677466 0.677466
v -0.936710 -0.677467 -0.677466
v -0.936710 -0.677466 0.677466
v -0.936710 0.677466 0.677466
v -0.936710 0.677466 -0.677466
v -0.677466 0.677466 -0.936710
v -0.677466 -0.677467 -0.936710
v 0.677466 -0.677467 -0.936710
v 0.677466 0.677466 -0.936710
v -0.677466 -0.677467 0.936710
v -0.677466 0.677466 0.936710
v 0.677466 0.677466 0.936710
v 0.677466 -0.677467 0.936710
v -0.677466 0.936710 0.677466
v -0.677466 0.936710 -0.677466
v 0.677466 0.936710 -0.677466
v 0.677466 0.936710 0.677466
v -0.677466 -0.936710 -0.677466
v -0.677466 -0.936710 0.677466
v 0.677466 -0.936710 -0.677466
v 0.677466 -0.936710 0.677466
v -0.878472 -1.010406 0.878472
v -0.878472 -0.878472 1.010406
v -1.010406 -0.878472 0.878472
v -0.878472 -0.971763 0.971763
v -0.961767 -0.961767 0.961767
v -0.971763 -0.878472 0.971763
v -0.971763 -0.971763 0.878472
v -0.878472 0.878472 1.010406
v -0.878472 1.010405 0.878472
v -1.010406 0.878472 0.878472
v -0.878472 0.971763 0.971763
v -0.961767 0.961767 0.961767
v -0.971763 0.971763 0.878472
v -0.971763 0.878472 0.971763
v -1.010406 -0.878472 -0.878472
v -0.878472 -0.878472 -1.010406
v -0.878472 -1.010406 -0.878472
v -0.971763 -0.878472 -0.971763
v -0.961767 -0.961767 -0.961767
v -0.878472 -0.971763 -0.971763
v -0.971763 -0.971763 -0.878472
v -0.878472 1.010405 -0.878472
v -0.878472 0.878472 -1.010406
v -1.010406 0.878472 -0.878472
v -0.878472 0.971763 -0.971763
v -0.961767 0.961767 -0.961767
v -0.971763 0.878472 -0.971763
v -0.971763 0.971763 -0.878472
v 1.010406 -0.878472 0.878472
v 0.878472 -0.878472 1.010406
v 0.878472 -1.010406 0.878472
v 0.971763 -0.878472 0.971763
v 0.961767 -0.961767 0.961767
v 0.878472 -0.971763 0.971763
v 0.971763 -0.971763 0.878472
v 0.878472 1.010406 0.878472
v 0.878472 0.878472 1.010406
v 1.010406 0.878472 0.878472
v 0.878472 0.971763 0.971763
v 0.961767 0.961767 0.961767
v 0.971763 0.878472 0.971763
v 0.971763 0.971763 0.878472
v 0.878472 -0.878472 -1.010406
v 1.010406 -0.878472 -0.878472
v 0.878472 -1.010406 -0.878472
v 0.971763 -0.878472 -0.971763
v 0.961767 -0.961767 -0.961767
v 0.971763 -0.971763 -0.878472
v 0.878472 -0.971763 -0.971763
v 0.878472 1.010406 -0.878472
v 1.010406 0.878472 -0.878472
v 0.878472 0.878472 -1.010406
v 0.971763 0.971763 -0.878472
v 0.961767 0.961767 -0.961767
v 0.971763 0.878472 -0.971763
v 0.878472 0.971763 -0.971763
vn 0.9999 0.0000 -0.0152
vn 0.0000 -0.9999 -0.0152
vn -0.9999 -0.0000 -0.0152
vn -0.0000 0.9999 -0.0152
vn 0.8150 -0.0000 0.5794
vn -0.0000 0.8150 0.5794
vn 0.0000 -0.8150 0.5794
vn -0.8150 -0.0000 0.5794
vn 0.9999 0.0000 0.0152
vn -0.0000 0.9999 0.0152
vn -0.9999 -0.0000 0.0152
vn 0.0000 -0.9999 0.0152
vn 0.8150 0.0000 -0.5794
vn 0.0000 -0.8150 -0.5794
vn 0.0000 0.8150 -0.5794
vn -0.8150 0.0000 -0.5794
vn 0.0152 0.0000 -0.9999
vn 0.0152 0.9999 0.0000
vn 0.0152 -0.0000 0.9999
vn 0.0152 -0.9999 -0.0000
vn -0.5794 0.0000 -0.8150
vn -0.5794 -0.8150 -0.0000
vn -0.5794 0.8150 0.0000
vn -0.5794 0.0000 0.8150
vn -0.0000 0.0152 -0.9999
vn -0.9999 0.0152 0.0000
vn 0.0000 0.0152 0.9999
vn 0.9999 0.0152 -0.0000
vn -0.0000 -0.5794 -0.8150
vn 0.8150 -0.5794 -0.0000
vn -0.8150 -0.5794 -0.0000
vn -0.0000 -0.5794 0.8150
vn -0.0152 0.0000 -0.9999
vn -0.0152 -0.9999 -0.0000
vn -0.0152 -0.0000 0.9999
vn -0.0152 0.9999 0.0000
vn 0.5794 0.0000 -0.8150
vn 0.5794 0.8150 0.0000
vn 0.5794 -0.8150 0.0000
vn 0.5794 -0.0000 0.8150
vn 0.0000 -0.0152 -0.9999
vn 0.9999 -0.0152 0.0000
vn -0.0000 -0.0152 0.9999
vn -0.9999 -0.0152 -0.0000
vn 0.0000 0.5794 -0.8150
vn -0.8150 0.5794 0.0000
vn 0.8150 0.5794 -0.0000
vn 0.0000 0.5794 0.8150
vn 0.1655 -0.1655 0.9722
vn 0.0000 0.0000 1.0000
vn -0.1655 -0.1655 0.9722
vn 0.9722 -0.1655 -0.1655
vn 1.0000 -0.0000 0.0000
vn -0.9722 0.1655 0.1655
vn -1.0000 -0.0000 0.0000
vn -0.1655 0.1655 0.9722
vn 0.9722 0.1655 0.1655
vn 0.9722 0.1655 -0.1655
vn -0.0000 0.9270 0.3751
vn -0.1655 0.9722 -0.1655
vn -0.0000 1.0000 -0.0000
vn 0.1655 0.9722 -0.1655
vn 0.1655 -0.9722 0.1655
vn 0.0000 -1.0000 0.0000
vn 0.1655 -0.9722 -0.1655
vn -0.1655 -0.9722 -0.1655
vn -0.0000 0.3751 -0.9270
vn 0.1655 0.1655 0.9722
vn -0.1655 0.1655 -0.9722
vn 0.0000 0.0000 -1.0000
vn -0.3751 0.0000 0.9270
vn 0.1655 0.1655 -0.9722
vn 0.1655 0.9722 0.1655
vn 0.3751 -0.9270 0.0000
vn -0.1655 0.9722 0.1655
vn -0.1655 -0.9722 0.1655
vn -0.1655 -0.1655 -0.9722
vn 0.0000 -0.3751 0.9270
vn 0.1655 -0.1655 -0.9722
vn -0.9722 -0.1655 0.1655
vn 0.9722 -0.1655 0.1655
vn 0.9270 0.0000 -0.3751
vn -0.9722 -0.1655 -0.1655
vn -0.9722 0.1655 -0.1655
vn 0.3751 0.0000 0.9270
vn -0.3751 -0.0000 -0.9270
vn 0.3751 -0.0000 -0.9270
vn 0.3751 0.9270 -0.0000
vn -0.3751 -0.9270 0.0000
vn -0.3751 0.9270 -0.0000
vn 0.9270 0.0000 0.3751
vn -0.9270 -0.0000 -0.3751
vn 0.0000 0.9270 -0.3751
vn 0.0000 -0.9270 0.3751
vn -0.9270 -0.0000 0.3751
vn 0.0000 -0.9270 -0.3751
vn 0.0000 0.3751 0.9270
vn -0.9270 -0.3751 0.0000
vn 0.9270 -0.3751 -0.0000
vn -0.9270 0.3751 -0.0000
vn 0.9270 0.3751 -0.0000
vn 0.0000 -0.3751 -0.9270
vn -0.2699 -0.9243 0.2699
vn -0.3816 -0.9212 0.0761
vn -0.2699 -0.2699 0.9243
vn -0.0761 -0.3816 0.9212
vn -0.9243 -0.2699 0.2699
vn -0.9212 -0.0761 0.3816
vn -0.2699 0.2699 0.9243
vn -0.3816 0.0761 0.9212
vn -0.2699 0.9243 0.2699
vn -0.0761 0.9212 0.3816
vn -0.9243 0.2699 0.2699
vn -0.9212 0.3816 0.0761
vn -0.9243 -0.2699 -0.2699
vn -0.9212 -0.3816 -0.0761
vn -0.2699 -0.2699 -0.9243
vn -0.3816 -0.0761 -0.9212
vn -0.2699 -0.9243 -0.2699
vn -0.0761 -0.9212 -0.3816
vn -0.2699 0.9243 -0.2699
vn -0.3816 0.9212 -0.0761
vn -0.2699 0.2699 -0.9243
vn -0.0761 0.3816 -0.9212
vn -0.9243 0.2699 -0.2699
vn -0.9212 0.0761 -0.3816
vn 0.9243 -0.2699 0.2699
vn 0.9212 -0.3816 0.0761
vn 0.2699 -0.2699 0.9243
vn 0.3816 -0.0761 0.9212
vn 0.2699 -0.9243 0.2699
vn 0.0761 -0.9212 0.3816
vn 0.2699 0.9243 0.2699
vn 0.3816 0.9212 0.0761
vn 0.2699 0.2699 0.9243
vn 0.0761 0.3816 0.9212
vn 0.9243 0.2699 0.2699
vn 0.9212 0.0761 0.3816
vn 0.2699 -0.2699 -0.9243
vn 0.0761 -0.3816 -0.9212
vn 0.9243 -0.2699 -0.2699
vn 0.9212 -0.0761 -0.3816
vn 0.2699 -0.9243 -0.2699
vn 0.3816 -0.9212 -0.0761
vn 0.2699 0.9243 -0.2699
vn 0.0761 0.9212 -0.3816
vn 0.9243 0.2699 -0.2699
vn 0.9212 0.3816 -0.0761
vn 0.2699 0.2699 -0.9243
vn 0.3816 0.0761 -0.9212
vn -0.3816 -0.9212 -0.0761
vn -0.9212 -0.3816 0.0761
vn -0.3816 -0.0761 0.9212
vn -0.9212 0.0761 0.3816
vn -0.3816 0.9212 0.0761
vn -0.9212 0.3816 -0.0761
vn -0.3816 0.0761 -0.9212
vn -0.9212 -0.0761 -0.3816
vn 0.0761 -0.9212 -0.3816
vn -0.0761 -0.3816 -0.9212
vn -0.0761 0.9212 -0.3816
vn 0.0761 0.3816 -0.9212
vn 0.9212 0.0761 -0.3816
vn 0.3816 -0.0761 -0.9212
vn 0.3816 -0.9212 0.0761
vn 0.9212 -0.3816 -0.0761
vn 0.3816 0.9212 -0.0761
vn 0.9212 0.3816 0.0761
vn 0.3816 0.0761 0.9212
vn 0.9212 -0.0761 0.3816
vn -0.0761 -0.9212 0.3816
vn 0.0761 -0.3816 0.9212
vn 0.0761 0.9212 0.3816
vn -0.0761 0.3816 0.9212
usemtl Metal
s 1
f 2//1 3//1 1//1
f 4//2 7//2 3//2
f 8//3 5//3 7//3
f 6//4 1//4 5//4
f 4//5 2//5 9//5
f 2//6 6//6 9//6
f 8//7 4//7 9//7
f 6//8 8//8 9//8
f 11//9 12//9 10//9
f 13//10 16//10 12//10
f 17//11 14//11 16//11
f 15//12 10//12 14//12
f 13//13 11//13 18//13
f 11//14 15//14 18//14
f 17//15 13//15 18//15
f 15//16 17//16 18//16
f 20//17 21//17 19//17
f 22//18 25//18 21//18
f 26//19 23//19 25//19
f 24//20 19//20 23//20
f 22//21 20//21 27//21
f 20//22 24//22 27//22
f 26//23 22//23 27//23
f 24//24 26//24 27//24
f 29//25 30//25 28//25
f 31//26 34//26 30//26
f 35//27 32//27 34//27
f 33//28 28//28 32//28
f 31//29 29//29 36//29
f 29//30 33//30 36//30
f 35//31 31//31 36//31
f 33//32 35//32 36//32
f 38//33 39//33 37//33
f 40//34 43//34 39//34
f 44//35 41//35 43//35
f 42//36 37//36 41//36
f 40//37 38//37 45//37
f 38//38 42//38 45//38
f 44//39 40//39 45//39
f 42//40 44//40 45//40
f 47//41 48//41 46//41
f 49//42 52//42 48//42
f 53//43 50//43 52//43
f 51//44 46//44 50//44
f 49//45 47//45 54//45
f 47//46 51//46 54//46
f 53//47 49//47 54//47
f 51//48 53//48 54//48
f 2//1 4//1 3//1
f 4//2 8//2 7//2
f 8//3 6//3 5//3
f 6//4 2//4 1//4
f 11//9 13//9 12//9
f 13//10 17//10 16//10
f 17//11 15//11 14//11
f 15//12 11//12 10//12
f 20//17 22//17 21//17
f 22//18 26//18 25//18
f 26//19 24//19 23//19
f 24//20 20//20 19//20
f 29//25 31//25 30//25
f 31//26 35//26 34//26
f 35//27 33//27 32//27
f 33//28 29//28 28//28
f 38//33 40//33 39//33
f 40//34 44//34 43//34
f 44//35 42//35 41//35
f 42//36 38//36 37//36
f 47//41 49//41 48//41
f 49//42 53//42 52//42
f 53//43 51//43 50//43
f 51//44 47//44 46//44
usemtl Red
f 132//49 75//50 104//51
f 146//52 63//53 64//53
f 112//54 70//55 69//55
f 104//51 76//50 110//56
f 140//57 63//53 153//58
f 75//59 94//59 91//59
f 124//60 61//61 152//62
f 133//63 73//64 147//65
f 147//65 71//64 119//66
f 62//67 95//67 59//67
f 110//56 77//50 139//68
f 124//60 59//61 60//61
f 125//69 58//70 55//70
f 67//71 86//71 70//71
f 154//72 57//70 58//70
f 152//62 62//61 138//73
f 132//49 77//50 78//50
f 63//74 82//74 79//74
f 138//73 59//61 111//75
f 103//76 74//64 133//63
f 125//69 56//70 118//77
f 71//78 101//78 99//78
f 118//77 57//70 145//79
f 112//54 68//55 105//80
f 146//52 65//53 131//81
f 55//82 88//82 56//82
f 105//80 67//55 117//83
f 117//83 70//55 126//84
f 131//81 66//53 140//57
f 63//85 80//85 64//85
f 69//86 84//86 68//86
f 65//87 82//87 66//87
f 64//88 81//88 65//88
f 70//89 85//89 69//89
f 68//90 83//90 67//90
f 75//91 92//91 76//91
f 57//92 90//92 58//92
f 56//93 89//93 57//93
f 76//94 93//94 77//94
f 77//95 94//95 78//95
f 58//96 87//96 55//96
f 61//97 96//97 97//97
f 74//98 101//98 73//98
f 71//99 100//99 72//99
f 61//100 98//100 62//100
f 59//101 96//101 60//101
f 72//102 102//102 74//102
f 103//76 107//103 109//104
f 104//51 107//105 106//106
f 105//80 107//107 108//108
f 110//56 114//109 116//110
f 111//75 114//111 113//112
f 112//54 114//113 115//114
f 117//83 121//115 123//116
f 118//77 121//117 120//118
f 119//66 121//119 122//120
f 124//60 128//121 130//122
f 125//69 128//123 127//124
f 126//84 128//125 129//126
f 131//81 135//127 137//128
f 132//49 135//129 134//130
f 133//63 135//131 136//132
f 138//73 142//133 144//134
f 139//68 142//135 141//136
f 140//57 142//137 143//138
f 145//79 149//139 151//140
f 146//52 149//141 148//142
f 147//65 149//143 150//144
f 152//62 156//145 158//146
f 153//58 156//147 155//148
f 154//72 156//149 157//150
f 119//66 109//104 123//151
f 109//152 117//83 123//116
f 110//56 108//153 104//51
f 116//154 105//80 108//108
f 124//60 115//155 111//75
f 130//156 112//54 115//114
f 118//77 129//157 125//69
f 120//158 126//84 129//126
f 147//65 122//120 151//159
f 122//160 145//79 151//140
f 152//62 127//161 124//60
f 158//162 125//69 127//124
f 146//52 157//163 153//58
f 148//164 154//72 157//150
f 133//63 150//144 137//165
f 150//166 131//81 137//128
f 138//73 155//167 152//62
f 144//168 153//58 155//148
f 132//49 143//169 139//68
f 134//170 140//57 143//138
f 133//63 106//171 103//76
f 136//172 104//51 106//106
f 111//75 141//173 138//73
f 113//174 139//68 141//136
f 103//76 71//64 72//64
f 132//49 78//50 75//50
f 146//52 153//58 63//53
f 112//54 126//84 70//55
f 104//51 75//50 76//50
f 140//57 66//53 63//53
f 75//59 78//59 94//59
f 124//60 60//61 61//61
f 133//63 74//64 73//64
f 147//65 73//64 71//64
f 62//67 98//67 95//67
f 110//56 76//50 77//50
f 124//60 111//75 59//61
f 125//69 154//72 58//70
f 67//71 83//71 86//71
f 154//72 145//79 57//70
f 152//62 61//61 62//61
f 132//49 139//68 77//50
f 63//74 66//74 82//74
f 138//73 62//61 59//61
f 103//76 72//64 74//64
f 125//69 55//70 56//70
f 71//78 73//78 101//78
f 118//77 56//70 57//70
f 112//54 69//55 68//55
f 146//52 64//53 65//53
f 55//82 87//82 88//82
f 105//80 68//55 67//55
f 117//83 67//55 70//55
f 131//81 65//53 66//53
f 63//85 79//85 80//85
f 69//86 85//86 84//86
f 65//87 81//87 82//87
f 64//88 80//88 81//88
f 70//89 86//89 85//89
f 68//90 84//90 83//90
f 75//91 91//91 92//91
f 57//92 89//92 90//92
f 56//93 88//93 89//93
f 76//94 92//94 93//94
f 77//95 93//95 94//95
f 58//96 90//96 87//96
f 61//97 60//97 96//97
f 74//98 102//98 101//98
f 71//99 99//99 100//99
f 61//100 97//100 98//100
f 59//101 95//101 96//101
f 72//102 100//102 102//102
f 103//76 106//171 107//103
f 104//51 108//153 107//105
f 105//80 109//152 107//107
f 110//56 113//174 114//109
f 111//75 115//155 114//111
f 112//54 116//154 114//113
f 117//83 120//158 121//115
f 118//77 122//160 121//117
f 119//66 123//151 121//119
f 124//60 127//161 128//121
f 125//69 129//157 128//123
f 126//84 130//156 128//125
f 131//81 134//170 135//127
f 132//49 136//172 135//129
f 133//63 137//165 135//131
f 138//73 141//173 142//133
f 139//68 143//169 142//135
f 140//57 144//168 142//137
f 145//79 148//164 149//139
f 146//52 150//166 149//141
f 147//65 151//159 149//143
f 152//62 155//167 156//145
f 153//58 157//163 156//147
f 154//72 158//162 156//149
f 119//66 103//76 109//104
f 109//152 105//80 117//83
f 110//56 116//110 108//153
f 116//154 112//54 105//80
f 124//60 130//122 115//155
f 130//156 126//84 112//54
f 118//77 120//118 129//157
f 120//158 117//83 126//84
f 147//65 119//66 122//120
f 122//160 118//77 145//79
f 152//62 158//146 127//161
f 158//162 154//72 125//69
f 146//52 148//142 157//163
f 148//164 145//79 154//72
f 133//63 147//65 150//144
f 150//166 146//52 131//81
f 138//73 144//134 155//167
f 144//168 140//57 153//58
f 132//49 134//130 143//169
f 134//170 131//81 140//57
f 133//63 136//132 106//171
f 136//172 132//49 104//51
f 111//75 113//112 141//173
f 113//174 110//56 139//68
f 103//76 119//66 71//64
usemtl Red_Dark
f 79//53 81//53 80//53
f 85//55 83//55 84//55
f 87//70 89//70 88//70
f 93//50 91//50 94//50
f 97//61 95//61 98//61
f 101//64 100//64 99//64
f 79//53 82//53 81//53
f 85//55 86//55 83//55
f 87//70 90//70 89//70
f 93//50 92//50 91//50
f 97//61 96//61 95//61
f 101//64 102//64 100//64
