# Blender v2.80 (sub 75) OBJ File: 'SimpleCoin.blend'
# www.blender.org
o Cylinder
v -0.115000 0.000000 -0.350000
v 0.045410 -0.000000 -0.350000
v -0.115000 -0.142358 -0.319741
v 0.045410 -0.142358 -0.319741
v -0.115000 -0.260101 -0.234196
v 0.045410 -0.260101 -0.234196
v -0.115000 -0.332870 -0.108156
v 0.045410 -0.332870 -0.108156
v -0.115000 -0.348083 0.036585
v 0.045410 -0.348083 0.036585
v -0.115000 -0.303109 0.175000
v 0.045410 -0.303109 0.175000
v -0.115000 -0.205725 0.283156
v 0.045410 -0.205725 0.283156
v -0.115000 -0.072769 0.342352
v 0.045410 -0.072769 0.342352
v -0.115000 0.072769 0.342352
v 0.045410 0.072769 0.342352
v -0.115000 0.205725 0.283156
v 0.045410 0.205725 0.283156
v -0.115000 0.303109 0.175000
v 0.045410 0.303109 0.175000
v -0.115000 0.348083 0.036585
v 0.045410 0.348083 0.036585
v -0.115000 0.332870 -0.108156
v 0.045410 0.332870 -0.108156
v -0.115000 0.260101 -0.234196
v 0.045410 0.260101 -0.234196
v -0.115000 0.142358 -0.319741
v 0.045410 0.142358 -0.319741
v 0.045410 -0.113886 -0.255793
v 0.045410 -0.000000 -0.280000
v 0.045410 -0.208081 -0.187357
v 0.045410 -0.266296 -0.086525
v 0.045410 -0.278466 0.029268
v 0.045410 -0.242487 0.140000
v 0.045410 -0.164580 0.226525
v 0.045410 -0.058215 0.273881
v 0.045410 0.058215 0.273881
v 0.045410 0.164580 0.226525
v 0.045410 0.242487 0.140000
v 0.045410 0.278466 0.029268
v 0.045410 0.266296 -0.086525
v 0.045410 0.208081 -0.187357
v 0.045410 0.113886 -0.255793
v -0.115000 0.000000 -0.280000
v -0.115000 -0.113886 -0.255793
v -0.115000 -0.208081 -0.187357
v -0.115000 -0.266296 -0.086525
v -0.115000 -0.278466 0.029268
v -0.115000 -0.242487 0.140000
v -0.115000 -0.164580 0.226525
v -0.115000 -0.058215 0.273881
v -0.115000 0.058215 0.273881
v -0.115000 0.164580 0.226525
v -0.115000 0.242487 0.140000
v -0.115000 0.278466 0.029268
v -0.115000 0.266296 -0.086525
v -0.115000 0.208081 -0.187357
v -0.115000 0.113886 -0.255793
v -0.065000 0.000000 -0.280000
v -0.065000 -0.113886 -0.255793
v -0.065000 -0.208081 -0.187357
v -0.065000 -0.266296 -0.086525
v -0.065000 -0.278466 0.029268
v -0.065000 -0.242487 0.140000
v -0.065000 -0.164580 0.226525
v -0.065000 -0.058215 0.273881
v -0.065000 0.058215 0.273881
v -0.065000 0.164580 0.226525
v -0.065000 0.242487 0.140000
v -0.065000 0.278466 0.029268
v -0.065000 0.266296 -0.086525
v -0.065000 0.208081 -0.187357
v -0.065000 0.113886 -0.255793
v -0.004590 -0.113886 -0.255793
v -0.004590 -0.000000 -0.280000
v -0.004590 -0.208081 -0.187357
v -0.004590 -0.266296 -0.086525
v -0.004590 -0.278466 0.029268
v -0.004590 -0.242487 0.140000
v -0.004590 -0.164580 0.226525
v -0.004590 -0.058215 0.273881
v -0.004590 0.058215 0.273881
v -0.004590 0.164580 0.226525
v -0.004590 0.242487 0.140000
v -0.004590 0.278466 0.029268
v -0.004590 0.266296 -0.086525
v -0.004590 0.208081 -0.187357
v -0.004590 0.113886 -0.255793
vn -0.0000 -0.2079 -0.9781
vn 0.0000 -0.5878 -0.8090
vn 0.0000 -0.8660 -0.5000
vn 0.0000 -0.9945 -0.1045
vn 0.0000 -0.9511 0.3090
vn 0.0000 -0.7431 0.6691
vn 0.0000 -0.4067 0.9135
vn -0.0000 0.0000 1.0000
vn 0.0000 0.4067 0.9135
vn 0.0000 0.7431 0.6691
vn 0.0000 0.9511 0.3090
vn 0.0000 0.9945 -0.1045
vn 0.0000 0.8660 -0.5000
vn 1.0000 -0.0000 -0.0000
vn 0.0000 0.2079 -0.9781
vn 0.0000 0.5878 -0.8090
vn -1.0000 0.0000 0.0000
vn 0.0000 0.8660 0.5000
vn 0.0000 -0.7431 -0.6691
vn 0.0000 -0.9511 -0.3090
vn 0.0000 0.9945 0.1045
vn 0.0000 -0.9945 0.1045
vn 0.0000 0.9511 -0.3090
vn 0.0000 -0.8660 0.5000
vn 0.0000 0.7431 -0.6691
vn 0.0000 -0.5878 0.8090
vn 0.0000 0.4067 -0.9135
vn 0.0000 -0.2079 0.9781
vn 0.0000 -0.0000 -1.0000
vn 0.0000 0.2079 0.9781
vn 0.0000 -0.4067 -0.9135
vn 0.0000 0.5878 0.8090
s off
f 2//1 3//1 1//1
f 4//2 5//2 3//2
f 6//3 7//3 5//3
f 8//4 9//4 7//4
f 10//5 11//5 9//5
f 12//6 13//6 11//6
f 14//7 15//7 13//7
f 16//8 17//8 15//8
f 18//9 19//9 17//9
f 20//10 21//10 19//10
f 22//11 23//11 21//11
f 24//12 25//12 23//12
f 26//13 27//13 25//13
f 22//14 42//14 24//14
f 30//15 1//15 29//15
f 28//16 29//16 27//16
f 9//17 49//17 7//17
f 33//18 79//18 34//18
f 8//14 35//14 10//14
f 18//14 40//14 20//14
f 30//14 44//14 45//14
f 4//14 33//14 6//14
f 14//14 38//14 16//14
f 26//14 42//14 43//14
f 10//14 36//14 12//14
f 22//14 40//14 41//14
f 2//14 45//14 32//14
f 6//14 34//14 8//14
f 16//14 39//14 18//14
f 26//14 44//14 28//14
f 4//14 32//14 31//14
f 12//14 37//14 14//14
f 56//19 70//19 55//19
f 19//17 54//17 17//17
f 29//17 59//17 27//17
f 3//17 48//17 47//17
f 13//17 53//17 52//17
f 25//17 57//17 23//17
f 11//17 50//17 9//17
f 21//17 55//17 19//17
f 1//17 60//17 29//17
f 5//17 49//17 48//17
f 15//17 54//17 53//17
f 3//17 46//17 1//17
f 25//17 59//17 58//17
f 11//17 52//17 51//17
f 23//17 56//17 21//17
f 74//17 62//17 66//17
f 49//18 63//18 48//18
f 57//20 71//20 56//20
f 50//21 64//21 49//21
f 58//22 72//22 57//22
f 51//23 65//23 50//23
f 59//24 73//24 58//24
f 52//25 66//25 51//25
f 60//26 74//26 59//26
f 53//27 67//27 52//27
f 46//28 75//28 60//28
f 54//29 68//29 53//29
f 47//30 61//30 46//30
f 55//31 69//31 54//31
f 48//32 62//32 47//32
f 79//14 77//14 87//14
f 41//20 87//20 42//20
f 34//21 80//21 35//21
f 42//22 88//22 43//22
f 35//23 81//23 36//23
f 43//24 89//24 44//24
f 36//25 82//25 37//25
f 44//26 90//26 45//26
f 37//27 83//27 38//27
f 45//28 77//28 32//28
f 38//29 84//29 39//29
f 32//30 76//30 31//30
f 39//31 85//31 40//31
f 31//32 78//32 33//32
f 40//19 86//19 41//19
f 2//1 4//1 3//1
f 4//2 6//2 5//2
f 6//3 8//3 7//3
f 8//4 10//4 9//4
f 10//5 12//5 11//5
f 12//6 14//6 13//6
f 14//7 16//7 15//7
f 16//8 18//8 17//8
f 18//9 20//9 19//9
f 20//10 22//10 21//10
f 22//11 24//11 23//11
f 24//12 26//12 25//12
f 26//13 28//13 27//13
f 22//14 41//14 42//14
f 30//15 2//15 1//15
f 28//16 30//16 29//16
f 9//17 50//17 49//17
f 33//18 78//18 79//18
f 8//14 34//14 35//14
f 18//14 39//14 40//14
f 30//14 28//14 44//14
f 4//14 31//14 33//14
f 14//14 37//14 38//14
f 26//14 24//14 42//14
f 10//14 35//14 36//14
f 22//14 20//14 40//14
f 2//14 30//14 45//14
f 6//14 33//14 34//14
f 16//14 38//14 39//14
f 26//14 43//14 44//14
f 4//14 2//14 32//14
f 12//14 36//14 37//14
f 56//19 71//19 70//19
f 19//17 55//17 54//17
f 29//17 60//17 59//17
f 3//17 5//17 48//17
f 13//17 15//17 53//17
f 25//17 58//17 57//17
f 11//17 51//17 50//17
f 21//17 56//17 55//17
f 1//17 46//17 60//17
f 5//17 7//17 49//17
f 15//17 17//17 54//17
f 3//17 47//17 46//17
f 25//17 27//17 59//17
f 11//17 13//17 52//17
f 23//17 57//17 56//17
f 75//17 61//17 62//17
f 62//17 63//17 66//17
f 63//17 64//17 66//17
f 64//17 65//17 66//17
f 66//17 67//17 70//17
f 67//17 68//17 70//17
f 68//17 69//17 70//17
f 70//17 71//17 72//17
f 72//17 73//17 74//17
f 74//17 75//17 62//17
f 70//17 72//17 66//17
f 72//17 74//17 66//17
f 49//18 64//18 63//18
f 57//20 72//20 71//20
f 50//21 65//21 64//21
f 58//22 73//22 72//22
f 51//23 66//23 65//23
f 59//24 74//24 73//24
f 52//25 67//25 66//25
f 60//26 75//26 74//26
f 53//27 68//27 67//27
f 46//28 61//28 75//28
f 54//29 69//29 68//29
f 47//30 62//30 61//30
f 55//31 70//31 69//31
f 48//32 63//32 62//32
f 78//14 76//14 77//14
f 77//14 90//14 87//14
f 90//14 89//14 87//14
f 89//14 88//14 87//14
f 87//14 86//14 85//14
f 85//14 84//14 83//14
f 83//14 82//14 81//14
f 81//14 80//14 79//14
f 79//14 78//14 77//14
f 87//14 85//14 83//14
f 83//14 81//14 87//14
f 81//14 79//14 87//14
f 41//20 86//20 87//20
f 34//21 79//21 80//21
f 42//22 87//22 88//22
f 35//23 80//23 81//23
f 43//24 88//24 89//24
f 36//25 81//25 82//25
f 44//26 89//26 90//26
f 37//27 82//27 83//27
f 45//28 90//28 77//28
f 38//29 83//29 84//29
f 32//30 77//30 76//30
f 39//31 84//31 85//31
f 31//32 76//32 78//32
f 40//19 85//19 86//19
